<mxfile host="app.diagrams.net" agent="Mozilla/5.0 (Windows NT 10.0; Win64; x64) AppleWebKit/537.36 (KHTML, like Gecko) Chrome/129.0.0.0 Safari/537.36" version="24.7.17">
  <diagram name="Page-1" id="c4acf3e9-155e-7222-9cf6-157b1a14988f">
    <mxGraphModel dx="1762" dy="813" grid="1" gridSize="10" guides="1" tooltips="1" connect="1" arrows="1" fold="1" page="1" pageScale="1" pageWidth="850" pageHeight="1100" background="none" math="0" shadow="0">
      <root>
        <mxCell id="0" />
        <mxCell id="1" parent="0" />
        <mxCell id="17acba5748e5396b-1" value="ThreadPool" style="shape=umlFrame;whiteSpace=wrap;html=1;rounded=0;shadow=0;comic=0;labelBackgroundColor=none;strokeWidth=1;fontFamily=Verdana;fontSize=10;align=center;" parent="1" vertex="1">
          <mxGeometry x="15" y="10" width="820" height="1060" as="geometry" />
        </mxCell>
        <mxCell id="tLugK22XfSmltqaL5rb8-1" value="ThreadFuncBase" style="swimlane;fontStyle=1;align=center;verticalAlign=top;childLayout=stackLayout;horizontal=1;startSize=26;horizontalStack=0;resizeParent=1;resizeParentMax=0;resizeLast=0;collapsible=1;marginBottom=0;whiteSpace=wrap;html=1;" vertex="1" parent="1">
          <mxGeometry x="40" y="140" width="160" height="60" as="geometry" />
        </mxCell>
        <mxCell id="tLugK22XfSmltqaL5rb8-3" value="" style="line;strokeWidth=1;fillColor=none;align=left;verticalAlign=middle;spacingTop=-1;spacingLeft=3;spacingRight=3;rotatable=0;labelPosition=right;points=[];portConstraint=eastwest;strokeColor=inherit;" vertex="1" parent="tLugK22XfSmltqaL5rb8-1">
          <mxGeometry y="26" width="160" height="34" as="geometry" />
        </mxCell>
        <mxCell id="tLugK22XfSmltqaL5rb8-5" value="CMyThread" style="swimlane;fontStyle=1;align=center;verticalAlign=top;childLayout=stackLayout;horizontal=1;startSize=26;horizontalStack=0;resizeParent=1;resizeParentMax=0;resizeLast=0;collapsible=1;marginBottom=0;whiteSpace=wrap;html=1;" vertex="1" parent="1">
          <mxGeometry x="600" y="65" width="210" height="210" as="geometry" />
        </mxCell>
        <mxCell id="tLugK22XfSmltqaL5rb8-6" value="- m_worker: aotmic&amp;lt;ThreadWorker*&amp;gt;&lt;div&gt;-m_thread: HANDLE&lt;/div&gt;&lt;div&gt;-m_status:bool&lt;/div&gt;" style="text;strokeColor=none;fillColor=none;align=left;verticalAlign=top;spacingLeft=4;spacingRight=4;overflow=hidden;rotatable=0;points=[[0,0.5],[1,0.5]];portConstraint=eastwest;whiteSpace=wrap;html=1;" vertex="1" parent="tLugK22XfSmltqaL5rb8-5">
          <mxGeometry y="26" width="210" height="54" as="geometry" />
        </mxCell>
        <mxCell id="tLugK22XfSmltqaL5rb8-7" value="" style="line;strokeWidth=1;fillColor=none;align=left;verticalAlign=middle;spacingTop=-1;spacingLeft=3;spacingRight=3;rotatable=0;labelPosition=right;points=[];portConstraint=eastwest;strokeColor=inherit;" vertex="1" parent="tLugK22XfSmltqaL5rb8-5">
          <mxGeometry y="80" width="210" height="8" as="geometry" />
        </mxCell>
        <mxCell id="tLugK22XfSmltqaL5rb8-23" value="1" style="endArrow=open;html=1;endSize=12;startArrow=diamondThin;startSize=14;startFill=0;edgeStyle=orthogonalEdgeStyle;align=left;verticalAlign=bottom;rounded=0;entryX=0.99;entryY=0.77;entryDx=0;entryDy=0;entryPerimeter=0;" edge="1" parent="tLugK22XfSmltqaL5rb8-5" target="tLugK22XfSmltqaL5rb8-11">
          <mxGeometry x="-1" y="3" relative="1" as="geometry">
            <mxPoint y="104.57" as="sourcePoint" />
            <mxPoint x="160" y="104.57" as="targetPoint" />
          </mxGeometry>
        </mxCell>
        <mxCell id="tLugK22XfSmltqaL5rb8-28" value="聚合" style="edgeLabel;html=1;align=center;verticalAlign=middle;resizable=0;points=[];" vertex="1" connectable="0" parent="tLugK22XfSmltqaL5rb8-23">
          <mxGeometry x="0.0059" y="2" relative="1" as="geometry">
            <mxPoint as="offset" />
          </mxGeometry>
        </mxCell>
        <mxCell id="tLugK22XfSmltqaL5rb8-8" value="&lt;div&gt;+threadEntry(void*):void&lt;/div&gt;&lt;div&gt;+threadWorker():void&lt;/div&gt;+ Start(): bool&lt;div&gt;+Stop(): void&lt;/div&gt;&lt;div&gt;+IsIdle():bool&lt;/div&gt;&lt;div&gt;+SetWorker(ThreadWorker&amp;amp;):void&lt;/div&gt;&lt;div&gt;+UdateWorker(ThreadWorker&amp;amp;):void&lt;/div&gt;" style="text;strokeColor=none;fillColor=none;align=left;verticalAlign=top;spacingLeft=4;spacingRight=4;overflow=hidden;rotatable=0;points=[[0,0.5],[1,0.5]];portConstraint=eastwest;whiteSpace=wrap;html=1;" vertex="1" parent="tLugK22XfSmltqaL5rb8-5">
          <mxGeometry y="88" width="210" height="122" as="geometry" />
        </mxCell>
        <mxCell id="tLugK22XfSmltqaL5rb8-10" value="ThreadWorker" style="swimlane;fontStyle=1;align=center;verticalAlign=top;childLayout=stackLayout;horizontal=1;startSize=26;horizontalStack=0;resizeParent=1;resizeParentMax=0;resizeLast=0;collapsible=1;marginBottom=0;whiteSpace=wrap;html=1;" vertex="1" parent="1">
          <mxGeometry x="290" y="110" width="160" height="120" as="geometry" />
        </mxCell>
        <mxCell id="tLugK22XfSmltqaL5rb8-11" value="- thiz: ThreadFuncBase*&lt;div&gt;-func:&amp;nbsp;FUNCTYPE&lt;/div&gt;" style="text;strokeColor=none;fillColor=none;align=left;verticalAlign=top;spacingLeft=4;spacingRight=4;overflow=hidden;rotatable=0;points=[[0,0.5],[1,0.5]];portConstraint=eastwest;whiteSpace=wrap;html=1;" vertex="1" parent="tLugK22XfSmltqaL5rb8-10">
          <mxGeometry y="26" width="160" height="44" as="geometry" />
        </mxCell>
        <mxCell id="tLugK22XfSmltqaL5rb8-21" value="1" style="endArrow=open;html=1;endSize=12;startArrow=diamondThin;startSize=14;startFill=0;edgeStyle=orthogonalEdgeStyle;align=left;verticalAlign=bottom;rounded=0;entryX=1;entryY=0.5;entryDx=0;entryDy=0;" edge="1" parent="tLugK22XfSmltqaL5rb8-10" target="tLugK22XfSmltqaL5rb8-1">
          <mxGeometry x="-1" y="3" relative="1" as="geometry">
            <mxPoint y="60" as="sourcePoint" />
            <mxPoint x="160" y="60" as="targetPoint" />
          </mxGeometry>
        </mxCell>
        <mxCell id="tLugK22XfSmltqaL5rb8-27" value="聚合" style="edgeLabel;html=1;align=center;verticalAlign=middle;resizable=0;points=[];" vertex="1" connectable="0" parent="tLugK22XfSmltqaL5rb8-21">
          <mxGeometry x="0.123" y="4" relative="1" as="geometry">
            <mxPoint as="offset" />
          </mxGeometry>
        </mxCell>
        <mxCell id="tLugK22XfSmltqaL5rb8-12" value="" style="line;strokeWidth=1;fillColor=none;align=left;verticalAlign=middle;spacingTop=-1;spacingLeft=3;spacingRight=3;rotatable=0;labelPosition=right;points=[];portConstraint=eastwest;strokeColor=inherit;" vertex="1" parent="tLugK22XfSmltqaL5rb8-10">
          <mxGeometry y="70" width="160" height="8" as="geometry" />
        </mxCell>
        <mxCell id="tLugK22XfSmltqaL5rb8-13" value="&lt;div&gt;+IsValid():bool&amp;nbsp;&lt;/div&gt;+ operator()():int" style="text;strokeColor=none;fillColor=none;align=left;verticalAlign=top;spacingLeft=4;spacingRight=4;overflow=hidden;rotatable=0;points=[[0,0.5],[1,0.5]];portConstraint=eastwest;whiteSpace=wrap;html=1;" vertex="1" parent="tLugK22XfSmltqaL5rb8-10">
          <mxGeometry y="78" width="160" height="42" as="geometry" />
        </mxCell>
        <mxCell id="tLugK22XfSmltqaL5rb8-14" value="CMyThreadPool" style="swimlane;fontStyle=1;align=center;verticalAlign=top;childLayout=stackLayout;horizontal=1;startSize=26;horizontalStack=0;resizeParent=1;resizeParentMax=0;resizeLast=0;collapsible=1;marginBottom=0;whiteSpace=wrap;html=1;" vertex="1" parent="1">
          <mxGeometry x="590" y="410" width="240" height="140" as="geometry" />
        </mxCell>
        <mxCell id="tLugK22XfSmltqaL5rb8-15" value="- m_vctThread: std::vector&amp;lt;CMyThread&amp;gt;&lt;div&gt;-m_lock:std::mutex&lt;/div&gt;" style="text;strokeColor=none;fillColor=none;align=left;verticalAlign=top;spacingLeft=4;spacingRight=4;overflow=hidden;rotatable=0;points=[[0,0.5],[1,0.5]];portConstraint=eastwest;whiteSpace=wrap;html=1;" vertex="1" parent="tLugK22XfSmltqaL5rb8-14">
          <mxGeometry y="26" width="240" height="34" as="geometry" />
        </mxCell>
        <mxCell id="tLugK22XfSmltqaL5rb8-16" value="" style="line;strokeWidth=1;fillColor=none;align=left;verticalAlign=middle;spacingTop=-1;spacingLeft=3;spacingRight=3;rotatable=0;labelPosition=right;points=[];portConstraint=eastwest;strokeColor=inherit;" vertex="1" parent="tLugK22XfSmltqaL5rb8-14">
          <mxGeometry y="60" width="240" height="8" as="geometry" />
        </mxCell>
        <mxCell id="tLugK22XfSmltqaL5rb8-26" value="Use" style="endArrow=open;endSize=12;dashed=1;html=1;rounded=0;entryX=0.473;entryY=1.08;entryDx=0;entryDy=0;entryPerimeter=0;" edge="1" parent="tLugK22XfSmltqaL5rb8-14" target="tLugK22XfSmltqaL5rb8-13">
          <mxGeometry width="160" relative="1" as="geometry">
            <mxPoint y="67.13" as="sourcePoint" />
            <mxPoint x="160" y="67.13" as="targetPoint" />
          </mxGeometry>
        </mxCell>
        <mxCell id="tLugK22XfSmltqaL5rb8-17" value="&lt;div&gt;+Invoke():bool&lt;/div&gt;&lt;div&gt;+Stop():bool&lt;/div&gt;+ DispatchWorker(ThreadWorker&amp;amp;): int&lt;div&gt;+CheckThreadValid(int):bool&lt;/div&gt;" style="text;strokeColor=none;fillColor=none;align=left;verticalAlign=top;spacingLeft=4;spacingRight=4;overflow=hidden;rotatable=0;points=[[0,0.5],[1,0.5]];portConstraint=eastwest;whiteSpace=wrap;html=1;" vertex="1" parent="tLugK22XfSmltqaL5rb8-14">
          <mxGeometry y="68" width="240" height="72" as="geometry" />
        </mxCell>
        <mxCell id="tLugK22XfSmltqaL5rb8-24" value="1" style="endArrow=open;html=1;endSize=12;startArrow=diamondThin;startSize=14;startFill=1;edgeStyle=orthogonalEdgeStyle;align=left;verticalAlign=bottom;rounded=0;entryX=0.528;entryY=1.001;entryDx=0;entryDy=0;entryPerimeter=0;" edge="1" parent="1" target="tLugK22XfSmltqaL5rb8-8">
          <mxGeometry x="-1" y="3" relative="1" as="geometry">
            <mxPoint x="710" y="410" as="sourcePoint" />
            <mxPoint x="870" y="410" as="targetPoint" />
          </mxGeometry>
        </mxCell>
        <mxCell id="tLugK22XfSmltqaL5rb8-29" value="组合" style="edgeLabel;html=1;align=center;verticalAlign=middle;resizable=0;points=[];" vertex="1" connectable="0" parent="tLugK22XfSmltqaL5rb8-24">
          <mxGeometry x="0.0886" y="1" relative="1" as="geometry">
            <mxPoint as="offset" />
          </mxGeometry>
        </mxCell>
      </root>
    </mxGraphModel>
  </diagram>
</mxfile>
